<svg width="1070" height="56" viewBox="0 0 1070 56" fill="none" xmlns="http://www.w3.org/2000/svg">
<path d="M35.7141 41.4294V38.7508C35.7141 38.5687 35.6248 38.3972 35.4784 38.2901L21.4927 28.1437L35.4784 17.9972C35.6248 17.8901 35.7141 17.7187 35.7141 17.5365V14.8579C35.7141 14.6258 35.4498 14.4901 35.2605 14.6258L17.8998 27.2187C17.2713 27.6758 17.2713 28.6115 17.8998 29.0651L35.2605 41.6579C35.4498 41.7972 35.7141 41.6615 35.7141 41.4294Z" fill="white"/>
<circle cx="27.5" cy="28.5" r="24.5" stroke="white" stroke-width="6"/>
<path d="M1034.29 14.5706V17.2492C1034.29 17.4313 1034.38 17.6028 1034.52 17.7099L1048.51 27.8563L1034.52 38.0028C1034.38 38.1099 1034.29 38.2813 1034.29 38.4635V41.1421C1034.29 41.3742 1034.55 41.5099 1034.74 41.3742L1052.1 28.7813C1052.73 28.3242 1052.73 27.3885 1052.1 26.9349L1034.74 14.3421C1034.55 14.2028 1034.29 14.3385 1034.29 14.5706Z" fill="white"/>
<circle cx="1042.5" cy="27.5" r="24.5" transform="rotate(-180 1042.5 27.5)" stroke="white" stroke-width="6"/>
</svg>
