<svg width="1281" height="56" viewBox="0 0 1281 56" fill="none" xmlns="http://www.w3.org/2000/svg">
<path d="M37.8096 41.4294V38.7508C37.8096 38.5687 37.715 38.3972 37.56 38.2901L22.7537 28.1437L37.56 17.9972C37.715 17.8901 37.8096 17.7187 37.8096 17.5365V14.8579C37.8096 14.6258 37.5298 14.4901 37.3294 14.6258L18.95 27.2187C18.2845 27.6758 18.2845 28.6115 18.95 29.0651L37.3294 41.6579C37.5298 41.7972 37.8096 41.6615 37.8096 41.4294Z" fill="white"/>
<path d="M55.2273 28.5C55.2273 41.8721 43.6993 53 29.1136 53C14.528 53 3 41.8721 3 28.5C3 15.1279 14.528 4 29.1136 4C43.6993 4 55.2273 15.1279 55.2273 28.5Z" stroke="white" stroke-width="6"/>
<path d="M1243.19 14.5706V17.2492C1243.19 17.4313 1243.28 17.6028 1243.44 17.7099L1258.25 27.8563L1243.44 38.0028C1243.28 38.1099 1243.19 38.2813 1243.19 38.4635V41.1421C1243.19 41.3742 1243.47 41.5099 1243.67 41.3742L1262.05 28.7813C1262.72 28.3242 1262.72 27.3885 1262.05 26.9349L1243.67 14.3421C1243.47 14.2028 1243.19 14.3385 1243.19 14.5706Z" fill="white"/>
<path d="M1225.77 27.5C1225.77 14.1279 1237.3 3 1251.89 3C1266.47 3 1278 14.1279 1278 27.5C1278 40.8721 1266.47 52 1251.89 52C1237.3 52 1225.77 40.8721 1225.77 27.5Z" stroke="white" stroke-width="6"/>
</svg>
