<svg width="20" height="18" viewBox="0 0 20 18" fill="none" xmlns="http://www.w3.org/2000/svg">
<g clip-path="url(#clip0_21_1816)">
<path d="M6.94611 12.6428H12.4498C12.5415 12.6428 12.6166 12.5745 12.6166 12.491V10.8973C12.6166 10.8138 12.5415 10.7455 12.4498 10.7455H11.6159C11.5242 10.7455 11.4491 10.8138 11.4491 10.8973V11.5803H7.94679V10.8973C7.94679 10.8138 7.87174 10.7455 7.78001 10.7455H6.94611C6.85438 10.7455 6.77933 10.8138 6.77933 10.8973V12.491C6.77933 12.5745 6.85438 12.6428 6.94611 12.6428ZM14.0342 10.3091C14.0342 10.5104 14.1221 10.7034 14.2785 10.8458C14.4348 10.9881 14.647 11.068 14.8681 11.068C15.0893 11.068 15.3014 10.9881 15.4578 10.8458C15.6142 10.7034 15.702 10.5104 15.702 10.3091C15.702 10.1078 15.6142 9.9148 15.4578 9.77248C15.3014 9.63015 15.0893 9.55019 14.8681 9.55019C14.647 9.55019 14.4348 9.63015 14.2785 9.77248C14.1221 9.9148 14.0342 10.1078 14.0342 10.3091ZM19.0167 7.12921L18.5227 6.34372C18.5004 6.30909 18.4641 6.28387 18.4215 6.27356C18.3789 6.26325 18.3336 6.26869 18.2954 6.2887L17.2385 6.8503L15.6061 2.74829C15.5199 2.50353 15.3505 2.29002 15.1223 2.13861C14.8941 1.98719 14.6189 1.90569 14.3365 1.90588H5.30334C4.57994 1.90588 3.93784 2.33088 3.71477 2.9589L2.15955 6.8522L1.10051 6.29059C1.06233 6.27059 1.017 6.26515 0.974423 6.27546C0.931848 6.28577 0.895484 6.31099 0.873272 6.34562L0.379189 7.12921C0.333325 7.20131 0.360427 7.29238 0.439647 7.33412L1.69883 8.00198L1.39654 8.76091C1.37152 8.82162 1.35902 8.88613 1.35902 8.95064V15.5571C1.35902 15.855 1.60502 16.096 1.9073 16.096H3.31658C3.57301 16.096 3.79607 15.9195 3.85028 15.6728L4.0108 14.9576H15.3851L15.5457 15.6728C15.6019 15.9195 15.8229 16.096 16.0793 16.096H17.4886C17.7909 16.096 18.0369 15.855 18.0369 15.5571V8.95064C18.0369 8.88613 18.0244 8.82162 17.9994 8.76091L17.6971 8.00198L18.9542 7.33412C18.992 7.31423 19.0198 7.28162 19.0315 7.2433C19.0432 7.20498 19.0379 7.16401 19.0167 7.12921ZM16.5359 9.09484V13.5915H2.86003V9.09484L3.18525 8.27899H16.2107L16.5359 9.09484ZM5.12614 3.42374L5.13656 3.39908L5.1449 3.37441C5.16783 3.3118 5.23037 3.27006 5.30334 3.27006H14.2177L15.7896 7.21649H3.61053L5.12614 3.42374ZM3.69392 10.3091C3.69392 10.5104 3.78178 10.7034 3.93816 10.8458C4.09455 10.9881 4.30665 11.068 4.52782 11.068C4.74898 11.068 4.96108 10.9881 5.11747 10.8458C5.27385 10.7034 5.36171 10.5104 5.36171 10.3091C5.36171 10.1078 5.27385 9.9148 5.11747 9.77248C4.96108 9.63015 4.74898 9.55019 4.52782 9.55019C4.30665 9.55019 4.09455 9.63015 3.93816 9.77248C3.78178 9.9148 3.69392 10.1078 3.69392 10.3091Z" fill="white"/>
</g>
<defs>
<clipPath id="clip0_21_1816">
<rect x="0.358521" y="0.5" width="18.6792" height="17" rx="8.5" fill="white"/>
</clipPath>
</defs>
</svg>
