<svg width="19" height="18" viewBox="0 0 19 18" fill="none" xmlns="http://www.w3.org/2000/svg">
<g clip-path="url(#clip0_21_1822)">
<path d="M13.3545 5.98328H12.3767C12.1641 5.98328 11.9619 6.07624 11.8368 6.23562L8.55957 10.3718L7.07523 8.49723C6.95015 8.33975 6.75002 8.24488 6.53529 8.24488H5.55755C5.42204 8.24488 5.34282 8.38529 5.42204 8.48584L8.01962 11.7644C8.08099 11.8424 8.16188 11.9059 8.2556 11.9497C8.34932 11.9935 8.45316 12.0164 8.55853 12.0164C8.66389 12.0164 8.76773 11.9935 8.86145 11.9497C8.95517 11.9059 9.03607 11.8424 9.09743 11.7644L13.4879 6.22424C13.5692 6.12368 13.49 5.98328 13.3545 5.98328Z" fill="white"/>
<path d="M9.45614 0.5C4.2985 0.5 0.116516 4.30603 0.116516 9C0.116516 13.694 4.2985 17.5 9.45614 17.5C14.6138 17.5 18.7958 13.694 18.7958 9C18.7958 4.30603 14.6138 0.5 9.45614 0.5ZM9.45614 16.058C5.17409 16.058 1.70092 12.8971 1.70092 9C1.70092 5.1029 5.17409 1.94196 9.45614 1.94196C13.7382 1.94196 17.2114 5.1029 17.2114 9C17.2114 12.8971 13.7382 16.058 9.45614 16.058Z" fill="white"/>
</g>
<defs>
<clipPath id="clip0_21_1822">
<rect x="0.116516" y="0.5" width="18.6792" height="17" rx="8.5" fill="white"/>
</clipPath>
</defs>
</svg>
