<svg width="19" height="18" viewBox="0 0 19 18" fill="none" xmlns="http://www.w3.org/2000/svg">
<g clip-path="url(#clip0_21_1828)">
<path d="M11.2059 10.6981C11.5975 10.3063 11.8139 9.79529 11.8125 9.26561C11.8125 8.09117 10.7722 7.14061 9.49014 7.14061C8.20802 7.14061 7.16774 8.09117 7.16774 9.26561C7.16774 9.81773 7.39706 10.3186 7.7744 10.6981C7.32228 10.9531 6.94468 11.3039 6.67386 11.7205C6.40304 12.1371 6.24704 12.6072 6.21918 13.0906C6.21805 13.1112 6.22153 13.1317 6.2294 13.151C6.23728 13.1703 6.24938 13.188 6.26498 13.2029C6.28058 13.2178 6.29935 13.2296 6.32015 13.2377C6.34095 13.2458 6.36334 13.25 6.38596 13.25H7.30116C7.38872 13.25 7.4596 13.1874 7.46586 13.1077C7.54507 12.1476 8.42483 11.3906 9.49222 11.3906C10.5596 11.3906 11.4394 12.1495 11.5186 13.1077C11.5248 13.1874 11.5957 13.25 11.6833 13.25H12.5964C12.619 13.25 12.6414 13.2458 12.6622 13.2377C12.683 13.2296 12.7018 13.2178 12.7174 13.2029C12.733 13.188 12.7451 13.1703 12.753 13.151C12.7608 13.1317 12.7643 13.1112 12.7632 13.0906C12.7048 12.0793 12.0961 11.199 11.2059 10.6981ZM9.49014 10.2522C8.89598 10.2522 8.41233 9.81014 8.41233 9.26561C8.41233 8.72108 8.89598 8.279 9.49014 8.279C10.0843 8.279 10.5679 8.72108 10.5679 9.26561C10.5679 9.81014 10.0843 10.2522 9.49014 10.2522ZM18.1626 3.5357H14.8271V2.4732C14.8271 2.38971 14.752 2.32141 14.6603 2.32141H13.4928C13.4011 2.32141 13.3261 2.38971 13.3261 2.4732V3.5357H10.2406V2.4732C10.2406 2.38971 10.1656 2.32141 10.0739 2.32141H8.90641C8.81468 2.32141 8.73963 2.38971 8.73963 2.4732V3.5357H5.65422V2.4732C5.65422 2.38971 5.57917 2.32141 5.48744 2.32141H4.31999C4.22826 2.32141 4.15321 2.38971 4.15321 2.4732V3.5357H0.817629C0.44863 3.5357 0.150513 3.80701 0.150513 4.14284V15.0714C0.150513 15.4072 0.44863 15.6786 0.817629 15.6786H18.1626C18.5316 15.6786 18.8298 15.4072 18.8298 15.0714V4.14284C18.8298 3.80701 18.5316 3.5357 18.1626 3.5357ZM17.3287 14.3125H1.65152V4.90177H4.15321V5.96427C4.15321 6.04775 4.22826 6.11605 4.31999 6.11605H5.48744C5.57917 6.11605 5.65422 6.04775 5.65422 5.96427V4.90177H8.73963V5.96427C8.73963 6.04775 8.81468 6.11605 8.90641 6.11605H10.0739C10.1656 6.11605 10.2406 6.04775 10.2406 5.96427V4.90177H13.3261V5.96427C13.3261 6.04775 13.4011 6.11605 13.4928 6.11605H14.6603C14.752 6.11605 14.8271 6.04775 14.8271 5.96427V4.90177H17.3287V14.3125Z" fill="white"/>
</g>
<defs>
<clipPath id="clip0_21_1828">
<rect x="0.150513" y="0.5" width="18.6792" height="17" rx="8.5" fill="white"/>
</clipPath>
</defs>
</svg>
