<svg width="126" height="25" viewBox="0 0 126 25" fill="none" xmlns="http://www.w3.org/2000/svg">
<rect x="0.5" y="1.10742" width="29" height="21.8827" rx="10.9414" stroke="white"/>
<path d="M15.6741 17.0543V12.4877H17.6837L17.9846 10.7081H15.6741V9.5718C15.6741 9.05655 15.8617 8.70538 16.8305 8.70538L18.066 8.70495V7.11323C17.8522 7.09162 17.1189 7.04318 16.2657 7.04318C14.4843 7.04318 13.2648 7.87252 13.2648 9.39563V10.7081H11.25V12.4878H13.2647V17.0544L15.6741 17.0543Z" fill="white"/>
<rect x="32.5" y="1.10742" width="27.5257" height="21.8827" rx="10.9414" stroke="white"/>
<path d="M51.4455 9.90007C51.4455 9.9968 51.4455 10.0935 51.4455 10.1764C51.4455 13.0368 48.8185 16.3393 44.03 16.3393C42.5502 16.3393 41.1868 15.98 40.0229 15.372C40.2225 15.3859 40.4386 15.3997 40.6381 15.3997C41.8519 15.3997 42.9825 15.0542 43.8804 14.4739C42.7331 14.46 41.7688 13.8244 41.4529 12.9677C41.6191 12.9953 41.7688 13.0091 41.9517 13.0091C42.1844 13.0091 42.4172 12.9815 42.6334 12.9262C41.4362 12.7328 40.5384 11.8622 40.5384 10.8121C40.5384 10.7982 40.5384 10.7982 40.5384 10.7844C40.8875 10.9502 41.2866 11.047 41.7189 11.0608C41.0206 10.6739 40.555 10.0106 40.555 9.25062C40.555 8.8499 40.688 8.47681 40.9042 8.15899C42.1844 9.47171 44.1131 10.3284 46.2746 10.4252C46.2247 10.2732 46.2081 10.0935 46.2081 9.92771C46.2081 8.72554 47.372 7.75827 48.8185 7.75827C49.5667 7.75827 50.2484 8.02081 50.714 8.43536C51.3125 8.33863 51.8612 8.15899 52.3766 7.91027C52.1771 8.42154 51.7615 8.83608 51.2294 9.11244C51.7615 9.05717 52.2603 8.94663 52.7258 8.76699C52.3933 9.20917 51.961 9.59608 51.4455 9.90007Z" fill="white"/>
<rect x="64.5" y="1.10742" width="27.5257" height="21.8827" rx="10.9414" stroke="white"/>
<path d="M83.9227 16.3361C83.2392 16.323 82.5719 16.323 81.8883 16.3361C81.7419 16.3361 81.7093 16.31 81.7093 16.1925C81.7093 15.2264 81.7093 14.2472 81.7093 13.2811C81.7093 13.0592 81.693 12.8372 81.6117 12.6283C81.3675 11.9495 80.391 11.7014 79.6912 12.1583C79.3169 12.3933 79.1704 12.7197 79.1704 13.1114C79.1704 14.0253 79.1704 14.9391 79.1704 15.853C79.1704 15.9705 79.1541 16.088 79.1704 16.2186C79.1867 16.323 79.1216 16.3491 79.0077 16.3361C78.3078 16.3361 77.6243 16.3361 76.9245 16.3361C76.7943 16.3361 76.7617 16.31 76.7617 16.2055C76.778 15.383 76.778 14.5605 76.778 13.725C76.778 12.7067 76.778 11.6883 76.7617 10.6831C76.7617 10.5656 76.7943 10.5395 76.9245 10.5395C77.6243 10.5395 78.3078 10.5395 79.0077 10.5395C79.1379 10.5395 79.1704 10.5656 79.1704 10.67C79.1704 10.8789 79.1704 11.0878 79.1704 11.3359C79.2192 11.2967 79.2355 11.2836 79.2518 11.2706C79.8865 10.5264 80.7816 10.3175 81.8395 10.4481C83.0601 10.6047 83.8413 11.2836 84.0366 12.3281C84.0855 12.5761 84.1017 12.8242 84.1017 13.0722C84.1017 14.1167 84.1017 15.148 84.1017 16.1925C84.1017 16.2969 84.0692 16.3361 83.9227 16.3361Z" fill="white"/>
<path d="M75.4593 13.438C75.4593 14.3519 75.4593 15.2658 75.4593 16.1797C75.4593 16.2972 75.4268 16.3363 75.2803 16.3363C74.5967 16.3233 73.9132 16.3363 73.2296 16.3363C73.0994 16.3363 73.0669 16.3102 73.0669 16.2058C73.0669 14.3649 73.0669 12.5111 73.0669 10.6703C73.0669 10.5789 73.0994 10.5397 73.2296 10.5397C73.9295 10.5397 74.6293 10.5397 75.3291 10.5397C75.4756 10.5397 75.4919 10.5789 75.4919 10.6833C75.4593 11.5972 75.4593 12.5111 75.4593 13.438Z" fill="white"/>
<path d="M75.5749 9.02517C75.4122 9.54739 74.7449 9.84766 73.98 9.74322C73.1662 9.63877 72.7105 8.99906 73.0035 8.37239C73.1988 7.98073 73.6707 7.74573 74.2729 7.75879C75.1843 7.74573 75.7865 8.33323 75.5749 9.02517Z" fill="white"/>
<rect x="96.5" y="1.10742" width="29" height="23.0654" rx="11.5327" stroke="white"/>
<path fill-rule="evenodd" clip-rule="evenodd" d="M104.438 9.37583C104.438 8.27126 105.333 7.37582 106.438 7.37582H115.562C116.667 7.37582 117.562 8.27125 117.562 9.37582V15.9044C117.562 17.009 116.667 17.9044 115.562 17.9044H106.437C105.333 17.9044 104.438 17.009 104.438 15.9044V9.37583ZM111 10.7835C109.51 10.7835 108.538 11.7314 108.538 12.6401C108.538 13.5489 109.51 14.4968 111 14.4968C112.49 14.4968 113.463 13.5489 113.463 12.6401C113.463 11.7314 112.49 10.7835 111 10.7835ZM107.338 12.6401C107.338 10.8353 109.108 9.58346 111 9.58346C112.893 9.58346 114.663 10.8353 114.663 12.6401C114.663 14.445 112.893 15.6968 111 15.6968C109.108 15.6968 107.338 14.445 107.338 12.6401ZM114.937 10.1835C115.421 10.1835 115.812 9.8692 115.812 9.48155C115.812 9.09389 115.421 8.77964 114.937 8.77964C114.454 8.77964 114.062 9.09389 114.062 9.48155C114.062 9.8692 114.454 10.1835 114.937 10.1835Z" fill="white"/>
</svg>
