<svg width="127" height="25" viewBox="0 0 127 25" fill="none" xmlns="http://www.w3.org/2000/svg">
<rect x="1" y="1.44443" width="29" height="21.8827" rx="10.9414" stroke="white"/>
<path d="M16.1741 17.3913V12.8247H18.1837L18.4846 11.0451H16.1741V9.9088C16.1741 9.39356 16.3617 9.04239 17.3305 9.04239L18.566 9.04195V7.45024C18.3522 7.42863 17.6189 7.38019 16.7657 7.38019C14.9843 7.38019 13.7648 8.20952 13.7648 9.73264V11.0451H11.75V12.8248H13.7647V17.3914L16.1741 17.3913Z" fill="white"/>
<rect x="33" y="1.44443" width="27.5257" height="21.8827" rx="10.9414" stroke="white"/>
<path d="M51.9454 10.2371C51.9454 10.3338 51.9454 10.4305 51.9454 10.5134C51.9454 13.3738 49.3184 16.6763 44.5299 16.6763C43.0501 16.6763 41.6867 16.317 40.5228 15.709C40.7223 15.7229 40.9385 15.7367 41.138 15.7367C42.3518 15.7367 43.4824 15.3912 44.3802 14.8109C43.233 14.797 42.2686 14.1614 41.9527 13.3047C42.119 13.3323 42.2686 13.3461 42.4515 13.3461C42.6843 13.3461 42.9171 13.3185 43.1332 13.2632C41.9361 13.0698 41.0383 12.1992 41.0383 11.1491C41.0383 11.1353 41.0383 11.1353 41.0383 11.1214C41.3874 11.2873 41.7865 11.384 42.2188 11.3978C41.5204 11.0109 41.0549 10.3476 41.0549 9.58763C41.0549 9.1869 41.1879 8.81382 41.404 8.496C42.6843 9.80872 44.613 10.6654 46.7745 10.7622C46.7246 10.6102 46.708 10.4305 46.708 10.2647C46.708 9.06254 47.8719 8.09528 49.3184 8.09528C50.0666 8.09528 50.7483 8.35782 51.2138 8.77236C51.8124 8.67564 52.3611 8.496 52.8765 8.24727C52.677 8.75854 52.2613 9.17309 51.7293 9.44945C52.2613 9.39418 52.7601 9.28363 53.2257 9.104C52.8931 9.54617 52.4609 9.93308 51.9454 10.2371Z" fill="white"/>
<rect x="65" y="1.44443" width="27.5257" height="21.8827" rx="10.9414" stroke="white"/>
<path d="M84.4228 16.6731C83.7393 16.66 83.072 16.66 82.3885 16.6731C82.242 16.6731 82.2094 16.647 82.2094 16.5295C82.2094 15.5634 82.2094 14.5842 82.2094 13.6181C82.2094 13.3962 82.1932 13.1742 82.1118 12.9653C81.8677 12.2865 80.8912 12.0384 80.1913 12.4953C79.817 12.7303 79.6705 13.0567 79.6705 13.4484C79.6705 14.3623 79.6705 15.2761 79.6705 16.19C79.6705 16.3075 79.6543 16.425 79.6705 16.5556C79.6868 16.66 79.6217 16.6861 79.5078 16.6731C78.808 16.6731 78.1244 16.6731 77.4246 16.6731C77.2944 16.6731 77.2618 16.647 77.2618 16.5425C77.2781 15.72 77.2781 14.8975 77.2781 14.062C77.2781 13.0437 77.2781 12.0254 77.2618 11.0201C77.2618 10.9026 77.2944 10.8765 77.4246 10.8765C78.1244 10.8765 78.808 10.8765 79.5078 10.8765C79.638 10.8765 79.6705 10.9026 79.6705 11.007C79.6705 11.2159 79.6705 11.4248 79.6705 11.6729C79.7194 11.6337 79.7356 11.6206 79.7519 11.6076C80.3866 10.8634 81.2818 10.6545 82.3396 10.7851C83.5603 10.9418 84.3414 11.6206 84.5367 12.6651C84.5856 12.9131 84.6018 13.1612 84.6018 13.4092C84.6018 14.4537 84.6018 15.485 84.6018 16.5295C84.6018 16.6339 84.5693 16.6731 84.4228 16.6731Z" fill="white"/>
<path d="M75.9593 13.775C75.9593 14.6889 75.9593 15.6028 75.9593 16.5167C75.9593 16.6342 75.9268 16.6733 75.7803 16.6733C75.0967 16.6603 74.4132 16.6733 73.7296 16.6733C73.5994 16.6733 73.5669 16.6472 73.5669 16.5428C73.5669 14.702 73.5669 12.8481 73.5669 11.0073C73.5669 10.9159 73.5994 10.8767 73.7296 10.8767C74.4295 10.8767 75.1293 10.8767 75.8291 10.8767C75.9756 10.8767 75.9919 10.9159 75.9919 11.0203C75.9593 11.9342 75.9593 12.8481 75.9593 13.775Z" fill="white"/>
<path d="M76.0749 9.36217C75.9122 9.88439 75.2449 10.1847 74.48 10.0802C73.6662 9.97578 73.2105 9.33606 73.5035 8.7094C73.6988 8.31774 74.1707 8.08274 74.7729 8.09579C75.6843 8.08274 76.2865 8.67023 76.0749 9.36217Z" fill="white"/>
<rect x="97" y="1.44443" width="29" height="23.0654" rx="11.5327" stroke="white"/>
<path fill-rule="evenodd" clip-rule="evenodd" d="M104.938 9.71283C104.938 8.60826 105.833 7.71283 106.938 7.71283H116.062C117.167 7.71283 118.062 8.60826 118.062 9.71283V16.2414C118.062 17.346 117.167 18.2414 116.062 18.2414H106.937C105.833 18.2414 104.938 17.346 104.938 16.2414V9.71283ZM111.5 11.1205C110.01 11.1205 109.038 12.0684 109.038 12.9771C109.038 13.8859 110.01 14.8338 111.5 14.8338C112.99 14.8338 113.963 13.8859 113.963 12.9771C113.963 12.0684 112.99 11.1205 111.5 11.1205ZM107.838 12.9771C107.838 11.1723 109.608 9.92046 111.5 9.92046C113.393 9.92046 115.163 11.1723 115.163 12.9771C115.163 14.782 113.393 16.0338 111.5 16.0338C109.608 16.0338 107.838 14.782 107.838 12.9771ZM115.437 10.5205C115.921 10.5205 116.312 10.2062 116.312 9.81855C116.312 9.4309 115.921 9.11665 115.437 9.11665C114.954 9.11665 114.562 9.4309 114.562 9.81855C114.562 10.2062 114.954 10.5205 115.437 10.5205Z" fill="white"/>
</svg>
