<svg width="20" height="18" viewBox="0 0 20 18" fill="none" xmlns="http://www.w3.org/2000/svg">
<path d="M17.681 9.41175C18.0312 8.99054 18.2251 8.47447 18.2251 7.93753C18.2251 7.08563 17.7018 6.27927 16.8596 5.8296C16.6428 5.71386 16.3959 5.65294 16.1445 5.65315H11.1453L11.2704 3.32134C11.2996 2.75784 11.0807 2.2228 10.6554 1.81487C10.4467 1.61381 10.1949 1.45384 9.91556 1.34484C9.63623 1.23584 9.33531 1.18014 9.03139 1.18117C7.94732 1.18117 6.98834 1.84523 6.70065 2.79579L4.90986 8.69646H2.2143C1.8453 8.69646 1.54718 8.96777 1.54718 9.3036V16.2098C1.54718 16.5457 1.8453 16.817 2.2143 16.817H14.7498C14.9416 16.817 15.1292 16.7828 15.3023 16.7145C16.2946 16.3294 16.9346 15.4471 16.9346 14.4681C16.9346 14.229 16.8971 13.9938 16.8221 13.7661C17.1723 13.3449 17.3662 12.8288 17.3662 12.2919C17.3662 12.0528 17.3286 11.8175 17.2536 11.5899C17.6038 11.1687 17.7977 10.6526 17.7977 10.1157C17.7935 9.87659 17.756 9.63943 17.681 9.41175ZM3.04819 15.4509V10.0625H4.73683V15.4509H3.04819ZM16.3155 8.75338L15.8589 9.11387L16.1487 9.59579C16.2441 9.75454 16.2937 9.93279 16.2925 10.1138C16.2925 10.4268 16.1424 10.7247 15.8839 10.9296L15.4274 11.2901L15.7171 11.772C15.8126 11.9308 15.8621 12.109 15.861 12.29C15.861 12.603 15.7109 12.9009 15.4524 13.1058L14.9958 13.4663L15.2856 13.9482C15.3811 14.107 15.4306 14.2852 15.4294 14.4662C15.4294 14.8912 15.1543 15.2745 14.729 15.449H6.07106V10.0018L8.14537 3.16197C8.19886 2.98666 8.31368 2.83199 8.47243 2.72141C8.63119 2.61082 8.82522 2.55034 9.02513 2.54914C9.18357 2.54914 9.33993 2.59088 9.46501 2.67626C9.6714 2.81666 9.78189 3.02916 9.76938 3.25494L9.56925 7.01922H16.1237C16.4947 7.22603 16.7241 7.57514 16.7241 7.93753C16.7241 8.25059 16.574 8.54657 16.3155 8.75338Z" fill="white"/>
</svg>
