<svg width="16" height="16" viewBox="0 0 16 16" fill="none" xmlns="http://www.w3.org/2000/svg">
<path d="M8.53475 2.35745L9.63543 4.33755C9.78624 4.60934 10.1647 4.86754 10.476 4.90244L12.3287 5.13412C13.515 5.2799 13.8209 6.1174 13.0136 6.99463L11.6382 8.48075C11.4086 8.7298 11.2894 9.20491 11.3816 9.53101L11.8635 11.2806C12.2426 12.662 11.5217 13.2345 10.255 12.556L8.48535 11.608C8.16306 11.4347 7.65112 11.4599 7.34834 11.6545L5.66373 12.7392C4.45779 13.5146 3.69041 13.0042 3.95503 11.5977L4.29388 9.81784C4.35714 9.48513 4.20547 9.02084 3.95512 8.79243L2.45304 7.42197C1.57642 6.61587 1.81222 5.75672 2.98036 5.51314L4.80432 5.13413C5.11214 5.06761 5.46887 4.78691 5.59411 4.50131L6.52858 2.43446C7.03936 1.32088 7.9405 1.28579 8.53475 2.35745Z" fill="#FFBD39"/>
</svg>
