<svg width="16" height="17" viewBox="0 0 16 17" fill="none" xmlns="http://www.w3.org/2000/svg">
<path d="M8.29723 2.98579L9.36729 4.92084C9.5139 5.18645 9.88186 5.43878 10.1845 5.47288L11.9856 5.69929C13.1389 5.84176 13.4363 6.66021 12.6514 7.51749L11.3143 8.9698C11.0911 9.21318 10.9752 9.67749 11.0649 9.99617L11.5334 11.706C11.9019 13.0559 11.2011 13.6155 9.96958 12.9524L8.24921 12.0259C7.93589 11.8566 7.4382 11.8812 7.14384 12.0714L5.50612 13.1314C4.33374 13.8891 3.58771 13.3903 3.84496 12.0159L4.17439 10.2765C4.23589 9.95133 4.08844 9.4976 3.84506 9.27439L2.38477 7.9351C1.53255 7.14734 1.76179 6.30773 2.89742 6.06969L4.67062 5.6993C4.96987 5.6343 5.31668 5.35998 5.43844 5.08087L6.3469 3.06104C6.84347 1.97279 7.71952 1.9385 8.29723 2.98579Z" fill="#FFBD39"/>
</svg>
