<svg width="40" height="40" viewBox="0 0 40 40" fill="none" xmlns="http://www.w3.org/2000/svg">
<path d="M20 3.33331C10.8 3.33331 3.33337 10.8 3.33337 20C3.33337 29.2 10.8 36.6666 20 36.6666C29.2 36.6666 36.6667 29.2 36.6667 20C36.6667 10.8 29.2 3.33331 20 3.33331ZM19.35 24.7333C19.35 26.55 17.9334 27.9666 16.1167 27.9666H13.65C11.8667 27.9666 10.4167 26.5166 10.4167 24.7333V20.2833C10.4167 15.15 11.5334 14 14.5167 12.2333C14.7167 12.1166 14.9334 12.0666 15.15 12.0666C15.5834 12.0666 16 12.2833 16.2334 12.6833C16.5834 13.2833 16.3834 14.05 15.8 14.4C13.7834 15.5666 13.0834 16 12.95 19.0166H16.1334C17.95 19.0166 19.3667 20.4333 19.3667 22.25V24.7333H19.35ZM29.5834 24.7333C29.5834 26.55 28.1667 27.9666 26.35 27.9666H23.8667C22.0834 27.9666 20.6334 26.5166 20.6334 24.7333V20.2833C20.6334 15.15 21.75 14 24.7334 12.2333C24.9334 12.1166 25.15 12.0666 25.3667 12.0666C25.8 12.0666 26.2167 12.2833 26.45 12.6833C26.8 13.2833 26.6 14.05 26.0167 14.4C24 15.6 23.3 16.0333 23.1667 19.05H26.35C28.1667 19.05 29.5834 20.4666 29.5834 22.2833V24.7333Z" fill="#009BDB"/>
</svg>
